<svg id="Layer_1" data-name="Layer 1" xmlns="http://www.w3.org/2000/svg" viewBox="0 0 874.933 705.857"><title>1</title><g id="Illustrations_dog-jump" data-name="Illustrations/dog-jump"><path id="Accent" d="M723.83,124.688c4.4,14.5,6.3,28.6,10,43.2,4.1,16,8.4,32.7,14,48.3,10.5,29.1,27.6,48.8,43.7,75.5,12.6,20.9,47.3,91.4,53.8,102.5,4,7,6.6,17.2,9.4,24.7,1.6,4.3,3.3,15.1,2.5,19.4-12.1-1.4-25-2.8-36.8,0-3.9.9-17.1,8.9-20.8,7.9-4.1-1-1.7-7.2-3.2-11-4.4-10.7-9.3-21.7-12.6-32.8-3.3-11.4-25.3-81.9-37.8-104.8-6.4-11.8-11.2-23.6-18.3-35-7.4-11.8-13.6-23.1-25.8-30.6,1.3-10.2,7.1-21.4,10.5-31.1a125.632,125.632,0,0,0,6.1-28.1c1.1-9.7,4.8-19.1,3.4-29-.7-5.1-4.1-8.5-5.3-13.1-.7-2.6-2.6-.3.1-3.6C717.93,125.788,722.23,125.688,723.83,124.688Zm-10.2,7.5c2.1,11.5-4.8,27.2-7.3,38.5-2.6,11.8-5.7,23.4-8.5,35.1-1.4,5.8-4.1,11-5.8,16.6-1.9,6.3-2.8,12.9-4.8,19.3-4,12.7-9.4,24.8-7.9,38.3,1.4,11.7,3,24.4,6.8,35.5,4.6,13.2,8.9,25.7,9.9,39.8,1,13.4-2.3,27.4-5.8,40.2-1.2,4.5-10.6,37.5-13.5,37-2.2-14.9-13.7-29.6-21.2-42.5-8.6-14.9-21.1-27.8-33.6-39.7,3.5-1.4,6.8-8.6,8.5-12,2.3-4.7,5-9.4,7.7-13.9,4.9-8.2,18.6-41,22.8-49.2,5-9.7,38.1-107.8,37.4-118-.3-4.5-.6-6.2,1.8-9.7C703.33,143.188,710.029,136.588,713.63,132.188Zm-76.7-4.5c0,4.5.4,5.3-2.3,8.4-2.3,2.6-5.2,4.4-7.5,7.2a114.556,114.556,0,0,0-12.9,20.1c-6.9,13.9-11.4,30.3-13.7,45.6-2.5,16.9-1,34.2-2.2,51.2-.4,6.3-1.5,13.8-5.7,18.9-3.7,4.5-10.6,7.9-15.7,10.5a103.714,103.714,0,0,0-30.7,23.7c-2.2,2.4-2.8,7.9-5.3,9.9s-10.2,8-13.1,9.3c-6.8,3.1-33.5.2-40.8-1.1-7.2-1.3-17.5-7.3-23.9-10.4-9-4.5-20.5-14-34.2-28.6,39-14.9,84.1-29,119-52.9.2,2.8,5.2,10.7,5.7,8.4,3.3-15,5.4-30.2,8.7-45.2a74.665,74.665,0,0,1,3.2-11.7c.8-1.9-8.3-3.3-11.9-1.9-13.6,5.4-27.7,8-41.9,11.1-26.3,5.8-56.3,8-79,23.9a173.849,173.849,0,0,0-27.3,24c-8.7,9.5-16.9,25.1-18.1,38.3-15.8-7.1-36.5-4-52.8-2.6,5.9-14.9,25.2-29.6,37.1-39.7,9.8-8.4,19.4-17.1,30.2-24.2,24.2-15.9,48.5-30.9,76.4-39.9,13.8-4.5,27.6-9,41.9-11.3,7.8-1.3,15.8-1.6,23.6-2.4,7.7-.8,10.6-2.4,16.3-7.8,10.6-10.1,25.2-12.3,38.9-16C612.529,138.688,625.43,135.688,636.93,127.688Zm-237-49.1,17.9,9.1a176.783,176.783,0,0,1-16.9,6c-6,1.6-14.3,24.8-22,24.8s-7.8-20.2-4-28.5c2.6-5.6,10.9-9.4,25-11.4Z" fill="#34558b" fill-rule="evenodd"/><path id="Fill-1" d="M334.43,369.788c1.1.4,1.5-.3,1.2-2.2-1.1-.5-1.5.3-1.2,2.2m391-280.8c-1.8.2-.8,1.9.3,2.6-.1-.9-.2-1.7-.3-2.6m-104.1,259.3c1.1-.8.7-1.5-1.1-2.1-1,.8-.7,1.5,1.1,2.1m-403.3-4.5c-5.8-.9-10.3-9.7-15-7.9-6,2.3-11.4,12.7-15.5,17.4,3.1,2.5,6.6,4.8,10,7.1s2.6,3.2,6,.4c2.5-2,4.5-5.7,6.6-8.2,2.5-2.9,5.7-5.6,7.9-8.8m133.4,332.2c1,.1,1.7-23,2.5-26.2a88.112,88.112,0,0,1,8.6-20.5c1.5-2.7,4.2-6.2,5.4-9,1.8-4.3-1.1-7.2-1.9-12.1-1.7-10.5.6-19.8,4.2-29.5-6.8-1.5-13.3-4.1-20.2-5.1,0,9.3-.9,17.1-4.7,25.6-1,2.1-2.9,3.9-2.1,6.5.3.8,2.6,1.4,3.2,2.2,3.2,4.4,3.7,7.9,3.9,13.4.6,18.3-1.4,36.4,1.1,54.7m-48-318.9c3.7,3.2,15.7-19.1,19.8-19,8.7.3-3.7,22.2-4.4,24.9,3.5-1.2,6.8-9.1,8.7-12.2,1.6-2.6,7.5-15.5,10.8-16.3,6.6-1.6,3.6,10.4,2.7,13.2-2.1,6.3-4.1,12.5-5.9,18.9,3.8-2.1,6.7-14.6,8.4-18.7,2.4-5.7,4.3-11.8,8-16.8,2.5-3.4,6.7-8.1,11.3-8.4,5.5-.3,7.6,5.6,12.6,6.7.7-12.6-.6-25.3.9-37.8a207.055,207.055,0,0,0-29.5,2.3c-5.5.9-9.1.9-11.8,6-2.1,4-3.7,8.1-5.7,12.2-7.7,15.6-15.8,31-25.9,45m-124.8-47c-7.2,7.4-13.7,15-20.5,22.8s-16.3,12.8-22.7,20.8c-5.9,7.3-10.3,15.8-15.9,23.4-6.2,8.4-11.3,17.8-16.6,26.8,5.4,1,6.8,1.1,10.3-2.9,2.9-3.3,5.3-7.4,8.2-10.7a125.618,125.618,0,0,1,22-20.4,103.762,103.762,0,0,1,29.1-14.3c3.9-1.2,5.3-.9,7.5-4.5,1.5-2.6,2.1-5.8,3.7-8.4,3.4-5.6,8.8-8.8,14.1-12.4-5.9-7.2-13.1-13-19.2-20.2m481-215.2c-2,1.5-2.2,7-3.1,9.3-1.7,4.2-4,8.2-6.1,12.3-3.6,7.1-6.7,15.1-6.5,23.2.1,8.4,6.6,13.2,14.4,14.7,8.6,1.7,15.1-1.7,22.7-5.3,7.5-3.6,13.6-9.2,19.6-14.9,4.7-4.5,7.7-11.9,13-14.4,5.1-2.4,11.3-4.5,12.8-11.7,1-4.9-.9-4.3-5.2-3.3-4.6,1.1-7.8,4-12.1,5.6,2.4-5.4,2.9-9.8,0-15-1.7-3-4.8-8-8.6-8.2-2.5-.1-5.5,2.7-7.8,3.5a87.623,87.623,0,0,1-8.8,2.4,58.624,58.624,0,0,1-24.3,1.8m17,337.6c2.9.5,12.2-32.4,13.4-37,3.5-12.8,6.7-26.8,5.8-40.2-1-14.1-5.4-26.5-9.9-39.8-3.8-11.2-5.4-23.8-6.8-35.5-1.6-13.5,3.9-25.6,7.8-38.3,1.8-5.9,2.8-11.9,4.4-17.7,1.7-6.2,4.7-11.8,6.2-18.2,2.8-11.8,5.9-23.3,8.5-35.1,2.5-11.3,9.3-24.7,7.2-36.1-3.5,4.3-7.8,8-11.3,12.2-3.6,4.3-2.3,4.6-1.9,10.5.7,9.8-1.3,21.2-3.6,30.7-4.8,19.8-13.2,37.8-19.3,57.1-3.2,9.9-4.4,21-8.9,30.4-4,8.4-9.5,15.8-13.8,23.9-4.7,8.9-10.1,17.2-15.2,25.9-2.4,4.1-4.9,8.1-7.1,12.3-1.8,3.6-3.8,12.2-7.3,13.6a167.567,167.567,0,0,1,30.5,39c7.6,12.7,19.1,27.3,21.3,42.3m25.8-200.5c11.7,7.2,17.6,17.7,24.8,29.1,7.2,11.3,13.9,22.9,20.3,34.6a331.342,331.342,0,0,1,29.1,72.4c3.2,11.6,7.8,22.9,11.1,34.2,3,10.5,4,21.2,8.4,31.3,1.2,2.8,2.1,8.9,5.3,9.9,3.8,1.2,13.9-4,17.7-5a107.965,107.965,0,0,1,38-2.3c.7-4.4-4.3-13-5.9-17.3-2.6-7.1-4.9-14.6-8.4-21.2-6-11.5-12.9-22.7-19.8-33.5-7.3-11.5-13.4-23.8-20.9-34.9-3.5-5.2-8.4-12.1-10.7-17.9a45.915,45.915,0,0,0-2.8-6.3c-1.2-2.1-2.6-4.2-3.8-6.2-15.8-26.2-27.4-52.8-37.5-81.3-5.5-15.6-10.2-31.4-14.6-47.4-4.1-15-4.9-30.5-9.5-45.5-2.7,1.8-7.2,1.6-7.1,5.1,0,.7,3.8,5.7,4.2,6.7a27.18,27.18,0,0,1,1.7,6.2c1.9,10.2-1.9,20.2-3.2,30.2-1.3,9.7-2.4,17.7-5.7,26.8-3.5,9.8-9.4,21.9-10.7,32.3m-269.9,60.4c11.5,10,22.1,21.1,35.6,27.9,6.4,3.2,11.4,7.6,18.6,8.9s14.7.5,22,0c7.4-.5,14.2-.6,21-3.7,2.9-1.3,7.4-2.6,9.9-4.6s4.1-5.2,6.3-7.6a105.06,105.06,0,0,1,30.7-23.6c13.1-6.6,20.4-14.2,21.4-29.3,1.1-17-.4-34.3,2.2-51.1,2.3-15.3,6.8-31.7,13.7-45.5a109.073,109.073,0,0,1,12.9-20.1c2.2-2.8,5.2-4.6,7.5-7.2,2.7-3,2.3-3.8,2.3-8.4-11.5,8-24.4,11-37.8,14.6-13.6,3.6-28.3,5.9-38.9,15.9-5.7,5.4-8.6,7-16.3,7.8-7.9.8-15.8,1.2-23.6,2.4-14.4,2.3-28.1,6.8-41.9,11.3-27.9,9-52.2,24-76.4,39.9-10.8,7.1-20.4,15.8-30.2,24.2-11.9,10.1-27.9,23.7-33.8,38.6,16.3-1.5,32.8-6.2,48.6.9,1.2-13.2,10.2-26.1,18.9-35.6a182.573,182.573,0,0,1,26.7-23.6c22.7-16.2,53-20.4,79.5-26.2,14.3-3.1,27.6-5.6,41.2-11,3.4-1.4,13.5-7.4,15.4-3.8,1.2,2.3-1.9,5.6-2.7,7.5a65.431,65.431,0,0,0-2.9,10.1c-3.5,15.5-5.7,31.3-9,46.8-.5,2.3-1.2,12.6-5.3,11.2-2.7-.9-.2-16.7-.4-19.6-34.9,24-76.1,38-115.2,52.9m39.2,266.6c-7.7.3-15.6,4.5-23.2,6.4-10.1,2.6-20.8,5.2-30.1,9.8-5,2.4-5,3.9-3.7,9.4,1.1,4.4,2.3,8.6,3.2,13.1,2.2,11.1,4.7,22,7.5,32.9,28.9-24.1,65.7-37.7,101.7-47,5.1-1.3,10.3-1.7,15.4-2.6,4.5-.8,9.7-.2,14-1.1,2.8-.6,5.2-2.4,8.1-3.1,6.1-1.4,13.4-1.5,19.2-3.7a235.018,235.018,0,0,0,24.4-10.7c8.5-4.3,15.3-7.5,17-16.8,1.4-7.4,4.8-14.2,5.9-21.5,1.4-9.4-.3-17.8-.9-27.2a335.237,335.237,0,0,0-10.1-65.1c-5.3-20.4-9.1-41.3-12.8-61.9-.7-4-2.1-7.7-3.1-11.7-1.6-6.6-4.7-4.9-10.6-4.5-11.2.7-23-3.7-32.3-9.8-4.4-2.8-9.9-9.3-14.9-10.7-4.5-1.2-9,4.8-13.3,6.8-10.2,4.8-22.7,6.1-33.8,6.9-24.3,1.7-42.6-14.1-59.2-30.2a318.914,318.914,0,0,1-36,34.7c-10.6,8.7-19.6,20-28.5,30.3-8.3,9.7-15,24.8-26.3,31.6-6.6,4-11.5,1.5-17.8-2.5-5-3.2-10.6-4.9-15.7-7.8-23.4-13.5-45.5-28.8-68.4-43.1-5-3.1-12.9-10.5-18.8-11-4.4-.4-4,.7-6.5,4.3-2.4,3.5-4.9,7-7.4,10.5-9.5,13.8-19.7,28-27.4,42.9a129.95,129.95,0,0,1,49.2-2.3c15.2,2.2,34.6,4.8,48.1,13,5.7,3.5,11.4,7.5,17.1,11.4,7.2,5,12.8,12,20.8,15.8,6.9,3.3,14.3,4.7,21.4,7.2,8,2.7,19.4,7.8,27.9,5.6,7.3-1.9,13.3-8.3,18.8-12.8,7.1-5.8,15.8-9.7,23-15.1,12.8-9.5,26.1-17.7,39.8-26.2,16.4-10.2,32.1-21.9,49.1-30.8,3.3-1.8,6.6-3,9.8-5.1,2.9-2,5-5.6,8.6-3,3.1,2.3,1.8,6.5.8,9.5-.9,2.8-1.7,3.6-1.1,6,.5,2.2,4,5.7,5.2,7.9,5.6,10.3,9.6,21.4,14.9,31.9,5.2,10.2,11.1,19.9,15.9,30.3,9.6,20.4,22.9,38.6,31.4,59.7-3.9,1.6-4.4-1.7-7.4-2-3.3-.3-2.1.3-5.4,2.7-4.4,3.2-9.1,5.2-13.9,7.7-10.5,5.5-21.3,12-32.6,15.8-19.4,6.5-37.4,18-57,25.2m335.6-95.5c-.7,4.8-1.5,9.6-2.2,14.5-.5,3.4-2.4,8.4-2,11.7,5-2.4,10.4-10.3,14.3-1.6,2.3,5.2-.6,15.5-1.3,21,5.7-1.2,4.4-15.1,13.5-10.6,7,3.5,2.1,21,7.5,22.8,3.8-5.9,3.1-19.4,4.4-26.5.6-3.3-.2-7.8,3.6-8,3.4-.2,6,4.7,7.6,6.9,1.5-8.1,5.6-15.3,3.8-22.7-1.1-4.6-2.2-9.2-3.4-13.8-.7-2.7-1.4-11-3.8-12.8-4.4-3.5-20.3,2.7-25.1,4.1-4.4,1.3-10,2.5-14.1,4.6-4.2,2.3-2.9,5.5-2.8,10.4m-141.4-278.1c6.5-.7,12.2-4.7,17.2-8.8,8.2-6.8,9.5-12.1,11-22.5-10.5,5.1-18.3,9.4-30.2,9.6-13.6.2-20.3-7.7-26.6-18.7-1.7,2.6-4.1,5.3-5.3,8.1-1.5,3.5-1.4,2.8-.9,6.4.7,5.6,3.5,12.7,6.3,17.5,6,10.6,18,12,28.5,8.4m-269.1,422.6h12.4c-.7-4.5-1.4-9.1-2.1-13.6-.6-4,.4-9.5-3.5-10.2-3.2-.6-6.4,3-9.7,2.7-3.7-.4-5.9-3-10.2-2-6.2,1.5-4.9,8.3-5,13.9,0,2.2-.9,5.6-.2,7.7,1.2,3.8.2,2.3,3.9,2.6,4.4.6,9.9-.8,14.4-1.1m306.4-545.3c4.5.7,16.3,10.4,19.6,8.1,4.5-3.1-8.4-11.7-11.1-13.1-12.9-6.6-37.1-1.4-45.8,10.7,5.7.6,12.7-4.7,18.5-5.5,6.2-.9,12.5-.2,18.8-.2m-3.2,249.4c3.7,14.9,10.3,30.8,10.3,46.2,0,16-3.6,30.6-10.1,45.3-3.2,7.4-6.2,14.8-9.9,21.9-1.7,3.3-3.3,7.4-5.6,10.3-2.9,3.6-3.8,3.3-7.3.5-1.5,4-3.2,8-8.4,5.4-3.8-1.9-3.7-6.7-5-10.2-3.3-9.5-10.4-17.7-15.5-26.3-5.2-8.9-9.5-18.4-15.2-26.9-2.7-4.1-6-7.9-8.9-11.9-2.2-3-5.6-10-8.7-11.8-.4,4,3.8,9.8,5.4,13.6a143.188,143.188,0,0,1,5.3,15.6c2.9,10.3,4.6,21,6.8,31.5,3.9,18.7,8.6,37.2,11.2,56.2a223.568,223.568,0,0,1,1.2,53.6c-.8,7.6-5.3,14-8.3,21-4.1,9.4-9.1,15.3-17.3,22-14.9,12.1-31.4,19.4-49.6,24.8-3.4,1-6.5.6-9.7,1.3-3.6.8-6.4,2.6-10.3,3.2a246.091,246.091,0,0,0-29.8,6.2c-7.6,2.2-15.1,4.6-22.7,6.9-5.7,1.8-12.8,3.4-18.3,6-13.6,6.4-26.4,14-39.1,22-3.7,2.3-6.4,3.8-9.2,7.2-3,3.8-2.5,6.4-4.1,10.7-1.5,4-4.1,6.3-7.7,2.9-3.3-3.1-2-9.7-2.3-13.5-.4-5.8-3.8-28-7.8-29.8-2.9-1.3-11.3,1.5-14.8,1.9a52.214,52.214,0,0,1-13.1-.1c1.5,6.2-4,14.6-6.2,20.1a122.873,122.873,0,0,0-8.5,28.3c-1.1,6.8-.7,13.5-1.8,20.4-1.1,7.1.6,18.1-9,19.2-15.2,1.7-19.1-28.7-20.8-38.9-2.7-16-.6-31.8,1-47.8.1-1.3.8-7,.2-8.1-.5-.8-4.8-2.3-5.3-2.7-4.8-3.4-2.9-5.2-1.4-10.3,2.7-9.7,1.9-21.9,8.5-30.4,5-6.5,16.3-2.6,22.9-.8,4.9,1.3,9.7,3.1,14.4,4.8,3.3,1.2,6.9,4.8,9.8,5.4,5.7,1.2,9.9-6.1,14.1-8.7a152.634,152.634,0,0,1,23.9-12c15.2-5.7,30.9-9,46.5-13.8a213.787,213.787,0,0,0,28-10.4c6.7-3.1,13.4-7.6,20.7-9.7a280.579,280.579,0,0,0,27.3-10.1c9.5-3.9,19.8-6.5,29.5-9.7a535.731,535.731,0,0,1-51.4-94.4c-1.6-3.8-3.1-7.7-4.6-11.5-.7-2-2.5-10.9-4.4-12.1-3.4-2.3-17.2,8-21,10.5-13.9,9.1-27.2,19-41.6,27.3-12.5,7.2-24.3,15.4-36.3,23.1-6.6,4.2-12.7,9.6-19.4,13.9s-14.5,12.2-22.5,14c-3,.7-8-.2-10.9-.4a63.746,63.746,0,0,1-13-1.9c-8-2.3-16.5-4.9-24.3-7.7-14.1-5.1-25-17.8-37.7-25.6-15.3-9.4-32.7-11.8-49.8-17-18.7-5.7-39.5-6.3-59.3-4.8,0-18,8.7-31.6,18.2-46.4-6.8-4.5-9.7-7.3-17.4-3.1-5.7,3.1-10.9,5.9-16.2,9.3-5.7,3.7-11.8,6.6-17.5,10.7-6.2,4.5-11.6,9.2-17.3,14.2-4.3,3.8-9.2,7.2-13.7,10.6-4.4,3.4-9,2.9-14.7.6-1.7-.7-6.9-3-7.8-4.2-1.8-2.3-.5-3.9,1-6.9a145.358,145.358,0,0,1,12.3-20.4c4-5.7,9.2-10.4,13.4-16,4-5.3,6.8-11.4,11.4-16.2,5.1-5.3,11.3-9.6,16.1-15.3,2.4-2.8,5.2-5.9,5.4-9.2.1-2.6-2.7-5.1-2.7-6.9-.1-4.3,7.4-8.7,10.5-11.9,4.5-4.7,9-8.7,16.1-6.7,5.2,1.5,12.9,8,16.7,11.7,4.8,4.8,8.8,10.3,13.8,15,2.8,2.6,5.8,5.1,8.7,7.6,1.7,1.5,4.4,5.8,6.3,6.7,1.7.8,3.3,0,5.7,0-1.1,0,4.3.9,4,.9,2.6.7,5.1,1.4,7.6,2.2,10.3,3.3,19.9,9,29.2,14.6,23.7,14.3,46,29.5,69.2,44.7,6.9,4.5,8.8,4.2,14.1-2.3,4.9-6,9-12.7,13.6-18.9a271.4,271.4,0,0,1,25.2-29.4c9.3-9.4,20-17.3,29.9-26,2.8-2.4,14.1-10.6,13.4-13.6-.4-1.7-4.1-4.6-5.2-6.4a64.154,64.154,0,0,1-4.8-8.5c-7.5-17.1,12-18.3,23.4-23.6,14-6.5,27.8-13.6,42-19.3,7.2-2.9,14.3-5.5,21.6-8.2,6.7-2.5,12.7-6.5,19.3-9.2,4.8-2,15.3-2.8,18.5-7,1.9-2.5,1.1-10.5,1.4-13.4a119.044,119.044,0,0,1,2.6-14.5c-2.4-.4-6.9,2.2-9.1,3.2-4.2,1.9-7.8,3.9-12.5,5.1-9.9,2.6-20.4,2.9-30.1,5.7-14.9,4.3-30.8,6.8-45.4,13-16.8,7.1-31.2,19.7-43,33.2a103.524,103.524,0,0,0-15.1,22c-1.1,2.2-2.4,9.4-4,10.9-2.1,1.9-7.7-.1-10.1-.5,0,6.4.1,12.7-.1,19.1-.2,6.7,1,17-1.4,23.2-2.2,5.8-6.2,4.6-10.5,1.7-5.7-3.8-8.6-6-13.8-.1-8.9,10.3-12.3,26.4-18.4,38.5-2,4-6.9,12.3-9.6,4.1-2-5.9,1.3-13.5-.2-19.4-2.1,3.7-8.3,14.5-13.2,14.5-6.8,0-4.6-10.6-4.3-14.9-4,4.3-15.7,18.2-18.6,7-2.2-8.6,3.9-17.1,8.2-23.8,5-7.9,10-15.8,15.2-23.6,5.1-7.6,8.5-16.1,13.7-23.7-3.9.5-11.6-.7-9.2-6.9,1.3-3.2,5.3-1.9,7.2-3.8,2-2.1,3.1-7.9,4.3-10.6,5.6-13.3,13.7-24.3,23.1-35.2,16.5-19.2,37.6-34.5,58.8-47.3,25.3-15.3,51.4-24.6,79.8-32.1,13.4-3.5,27.1-5.2,40.6-7.7,5.6-1.1,11.4-1.7,15.8-5.2,6.6-5.3,11-9.3,19-12.7,6.5-2.7,12.6-4,19.7-5.2,7.6-1.3,16.3.4,23.5-1.7,6-1.8,13.1-5.6,18.6-8.7,2.8-1.6,7.7-2.4,9.2-3.8,2.9-2.6,4.8-8.9,6.6-12.3-4.6,1.2-6.3-2-7.5-6-2-6.5-2-4.4-8.4-7.1-3.7-1.6-5-5.9-7.9-7.5-3.2-1.6-8.2,1.9-12,.7-3.1-.9-6-4.2-5.9-7.7.1-1.5,1.6-2.7,1.6-3.9.1-2.8-2.2-4.3-1.9-7.4.5-4.7,2.9-3.9.9-9s-1.2-6.1-.6-11.4c.2-1.5-.6-3.8.4-5,.6-.7,2.8-.8,3-1.2.8-1.4.9-2.5,1-5,.1-1.4-.3-4.3,1.1-5.3,1.3-.9,3.1.8,4.2.2,1-.5,1.8-2.8,3.4-3.1,5.9-1,4.1,5,7.2-2.5,1.8-4.4,3.1-6.2,6.3-8.7,1.4.6,2.2.4,2.6-.8.5-.8.9-1.7,1.4-2.5,2.5-.6,2.8,1.3,4.7-.6,3.2-3-.1-9.8,6.4-8,4.7,1.3,5.8,7.3,10.7,8.8.7-2,.6-7.7,3.4-8.3,2.9-.6,5.1,4.7,6.2,6.4.7-1.5,1.8-5.9,2.9-7,3.2-3.1,2.3-.1,5.1.3.5.5.9,1.1,1.4,1.6,1.5-.7,3-1.5,4.4-2.3,3.1-.6,2-.3,4.8.8,2.2.9.9,1.9,3.6,2.5,1.9.4,3.6-1.6,5.7-1,.6.3,1.3.5,1.9.8.9,2,2.3,2.3,4.1,1,2.2.9,5.1,4.5,7.4,4.4,4.4-.2,3.4-6.3,8.2-6,1.8.1,6.4,4.9,7.7,6.4,1.8,2,1.3,3.7,3.5,6,3.3,3.3,1.3,1.5,4.5,3,4.6,2.2,6.3,1.4,8.2,6.7a46.831,46.831,0,0,1,2.6,15.3c0,3.1-2.2,9.8,2.1,8.3,3-1,2.5-8.4,5.7-6.1,2.4,1.8-2.4,11.2-2.4,13.4-.2,6.4.9,6.9-3.1,11.6-1.9,2.2-6.1,6.4-7.1,9.3-1.1,3.4,1.9,9.4,2.5,12.5,1.5,6.7.2,8.1-4.2,13.3a9.993,9.993,0,0,1-1.4.8c-2.4,0-3,1.2-2,3.5-.9,2.6-.8,5.2-2.2,7.8-.7,1.4-3.9,4.4-4.1,5.8-.3,2.5,1,3,3.1,5.6,8.6,10.6,12.6,24.4,16.8,37.2,7.5,22.5,16.8,44.5,25.7,66.5,3.5,8.6,7,16.8,10.7,25.5,4.5,10.8,10.9,20.7,16.2,31.1,3.7,7.2,7.5,15.2,12.1,21.4,5.8,7.9,9.1,18,14.2,26.5,5.5,9.1,11.8,18,17.1,27.4,5,8.9,11.3,17.1,16.1,26.3,6,11.5,12.9,25.2,14.6,38.2.6,4.6,2.4,12.2-.5,16.1-3,4.1-11.1,5.8-15.2,2.7,4.1,9.6,6.7,20.4,8.6,30.7.8,4.4,1.9,8.4.9,12.9-.9,4.1.6,1.7-2.7,4.1-2.7,2-1.5-3.6-3.6,2.1-.5,1.2.4,4.5.4,5.9-.1,5.6-.5,11.3-.8,17-.2,4.3.5,7.9-4.7,7.4-4.2-.4-6.3-4.8-8.2-8-.7,5-1.1,10.1-1.7,15.1-.5,4.5.5,8.9-5.2,8.4-9.4-.8-13.1-17.8-15.5-25-4.3,5.6-6.4,16.9-8.3,23.8-1.8,6.6-3.9,20.6-13.1,12-6.1-5.7-3.7-17-2.6-24.4.4-2.4,5.5-23.7,3.1-24.9-3.4,3.7-7.5,9.7-13.1,6.5-5.1-2.9-3.4-9.4-3-14.1,1.2-13.3,5.7-26.1,9.1-39-1.9-.4-6.6-.8-8.2-2.3-2-1.8-.8-2.7-1.7-5.1-1.2-3.2-3.4-6.4-5.1-9.4-5.6-9.9-7.3-19.7-10.2-30.4-2.8-10.4-8-19.5-10.8-30-3.1-11.6-6.4-23.1-10-34.6-8-25.3-19.4-49.4-32.6-72.4-1.7-3-15.9-35.6-18.1-34.6-1.5.7-2.4,9.1-3,11.4a88.444,88.444,0,0,0-1.9,16.2C691.33,277.488,696.93,299.388,700.029,312.088Z" fill-rule="evenodd"/><path id="Fill-4" d="M220.73,269.188c5.3,1.3,7.2-11.1,7.8-14.9,1-6.2,2.1-11.5,5.4-16.9a51.975,51.975,0,0,1,5.7-7.6c1.2-1.3,4.3-3,4.9-4.5,1.8-3.9-.3-13.8-.3-18.2,0-2.8-1.8-16,1.5-16.9,4.3-1.2,5.4,10.8,5.9,13.5.5,3.1.5,6.1.8,9.2.3,2.9,1.9,4.6,2.5,6.5,1.7,5.5-2.3,10-5.3,14.9-3.2,5.5-6.7,10.8-9,16.8-2.5,6.5-2.3,13.3-4.2,19.9-3.1,10.7-16.3,16.5-26.9,13.3-5.7-1.7-4.5-5.5-6.3-9.9-.7-1.7-2.6-2.6-3.2-4.8-.6-2.3-.1-5.4.4-7.8,2.2-11.5,5.9-23.5,9.4-34.7-19.1,10.5-39.3,17.4-61.3,17-10.9-.2-18.9-2.5-26.8,6.8-6.1,7.2-6.1,20-8.6,29-2.7,9.8-5.2,22.3-11.4,30.4-7.5,9.9-17.6,8.2-18.4-4.9-.6-11.2,4.9-21.8,4-33.2-.5-5.7-2.7-10.8-2.6-16.6.1-5,1.1-9.7,2-14.6-10.9,1.3-19.4,5.8-27.1,13.3-7.3,7-10.3,15.7-16.3,23.8-5.5,7.4-10.3,17.5-21.1,17.2-13.8-.3-14.7-17.3-9.5-26.4,2.6-4.6,6.3-8.3,9.7-12.4,3.7-4.5,4.2-8.2,4.9-13.9.6-4.4.7-10.2,4.7-13.1,3.6-2.6,8-1.3,11.3-4.8,3.2-3.3,5.6-8.3,8.5-12,3.5-4.6,7.2-9.3,10.3-14.2,6.8-10.5,15.7-17.7,25-25.9-3.4-2.1-12.4.2-16.6-.4-6.9-1.1-15.9-4.4-21.2-9.1-11.1-9.8-16.5-22.6-17-37.4-.5-14.2,1.7-31.3,12.3-41.9a75.153,75.153,0,0,1,19.1-13.5c4.5-2.3,13.8-7.3,19.1-5.2,12.1,4.8-15.2,23.7-18.8,26.7-11.5,9.6-18.2,18.9-17.9,34.3.3,15,14.7,22.1,26.8,27.1,6.3,2.6,13.8,4.6,20.8,4.4,7.9-.2,13.3-4.8,20.5-7.4,14.2-5.3,28.8-8.8,43.4-12.3,14.4-3.5,30.1-2.7,44.9-5,13.9-2.1,26.9-4.8,40-9.8,13.6-5.2,24.1-20.8,38.9-22.5,9.2-1,4.7,5.5.7,8.8-4.8,4-9.9,7.5-14.7,11.5-12.1,10.2-24.8,16.2-40.2,20.1a355.374,355.374,0,0,1-35,7.2c-15,2.1-30,1.5-44.7,5.3a162.7,162.7,0,0,0-25.4,8.9c-3.4,1.5-10.3,4-10.9,6.7-.8,3.5,2,3.4-1.4,6.7-5.7,5.5-13.1,9.3-18.9,15-6.4,6.3-12.5,12.4-17.7,19.8-5.2,7.3-9.3,14.4-16.9,19.5-2.5,1.7-6.8,4.6-9.7,5.4-2.7.7-3.9-.4-6.1,1.1-6,3.9-2.4,16.2-4,22.2-2,7.8-7.3,13.6-10.5,20.8,4.5-1,7.7-8.5,10.1-12.1,2.6-4,5.9-6.7,9.3-10.1,7-7.2,8.9-17.1,17.2-23.9,15.1-12.3,38.6-11.3,51.1-27.8,2-2.7,4-10.4,6.4-12.1,4.5-3.1,4.1,6.1,3.6,8.9-1.6,9.3-7.3,20.4-14.9,26.3-3.4,2.7-8.2,3.9-11.1,7.4-.7.3-1.4.6-2.2.9a18.418,18.418,0,0,1,.7,4.7c.1,2.8-.6,5.5-.7,8.3-.3,7.1,1.3,13.1,2.7,19.9,1,4.8-1.7,14.9.5,18.8,4.3-14.4,9.3-31,17.4-43.8,1.9-3,5.7-5.5,7.2-8.6.7-.8,1.4-1.6,2.2-2.4a20.1,20.1,0,0,1-3.3-3.9c-4.9-10.2,5.8-3.9,10.1-3,6.8,1.4,15.4-1.5,22.5-1.7a155.8,155.8,0,0,0,20.5-1.5c7.3-1.2,14.9-2.9,22-4.8,7.2-1.9,13.8-5.9,20.8-7.6-7-4.8-9.2-11-11.6-18.7-1.6-5.1-7.2-17.5-3.7-22.6,3.8-5.6,5.2,3,6.5,6.1,2.1,5.2,5.3,14,9.2,17.9,2.1,2.1,5,1.9,6.8,4.6,1.4,2.1,1.6,4.9,1.8,7.3.6,7-2.1,12.6-4.6,19-5.8,14.9-8.1,30.8-15.7,45,4.6.2,9.3-.5,13.9-.9" fill-rule="evenodd"/><path id="Fill-6" d="M317.33,151.688c3.7-.9,15.3-2.1,11.9-8.9s-12.4,4.3-11.9,8.9m109.8-53.8c-2.2-.7-5.6-2.2-7.9-2.1-2.7.2-4.8,2.2-7.6,2.5-5.7.5-10.1-1.9-13.8,4.2,7.9,0,23.7,2.7,29.3-4.6m-149.1,141.6c7.5,1,11.3-32.2,11.7-36.5-3.4-.3-12.5,6.3-13.3,9.3-.9,3.4,2.1,8.7,2.5,12.2a57.938,57.938,0,0,1-.9,15m41.9-189.6c-9.1.9-19.2,3.8-27.5-1.2-6.7-4.1-9.2-12.7-14.9-17.8,0,14.6,13.1,26.1,26.5,30.7,6.8,2.4,17.2-1.2,23.2,2.6,1.7,1.1,5.5,6.2,5.6,8.3.5,7.1-4.6.7-7.5,1-4,.3-9.6,10.9-12.9,14.1a75.642,75.642,0,0,1-8.2,6.5c-.9.7-5.7,3.1-6,4.3-.2,1,2.4,4.9,3,5.9a53.34,53.34,0,0,0,14.5,16.5c3,2.4,6.1,3.7,9.1,5.6,1,.6,4.9,6,3.8,5.8,1.7-5,6.4-10.9,9.5-15.4,3.2-4.6,7.5-9.4,12.9-11.2a44.149,44.149,0,0,1,8.8-1.7,22.808,22.808,0,0,1,5.2.4c2.5,1.1,3.5.2,2.9-2.6,2.6-5.4,1.1-12.2,4.4-17.7a17.566,17.566,0,0,1,17.5-8.7c3.3.3,6.8,1.7,10.1,1.2,3.2-.6,6.9-3.2,10-4.3,12.2-4.3,27.3-9.6,36.9-18.7,1.5-1.4,5.6-5.2,5.9-7.2-.9-1.9-1.7-3.8-2.6-5.8-.2-2.8-1.6-3.6-4.1-2.3-3-.1-8.6,3.3-11.6,4.3-3.8,1.2-7.6,2.3-11.3,3.7-6.4,2.4-12.7,4.9-19.5,6.4-7,1.5-10.3,2.4-14-4.2-3.6-6.5-3.1-10.3-11.5-9.3-7.5.8-13.7,3.7-20.6,6.6-4.6,2-10.5,5.6-15.2,6.4-3.4.6-7.2-.8-10.5-1.5-4.3-.9-7.6-.7-11.9-.7m86.8,37.6h3.8c-2.9-1.7-5.8-3.4-8.8-5.1-4.1,6.6-14.4,3.7-20.6,7.7-5.1,3.2-9.9,17.1-5,22.1,6.8,7,10.2-8.5,12.1-12.1,4-7.3,9.9-12.7,18.5-12.6m-119.3,14.9c-3.1-5.8-1.1-11.3,3.5-14.3,6.5-4.4,13.1-9.2,19.5-14.1-10.9-1.7-18.7-5.3-27.6-12-10.3-7.7-13.2-14.8-12.9-27.7.1-6.5-.8-25,9.7-19.6,8.7,4.4,9.9,16.8,19.2,21,9.2,4.2,20.1-.2,29.8,3.1,2.8.9,10.1,7.4,12.4,7.4,3,0,10.5-6.6,13.3-8.2,7.1-3.9,16.2-7.7,24.1-8.9,4.9-.7,6.6-1.2,10.1,2.4,4,4.1,5.3,9.1,6.7,14.4,15.2-6.3,30.6-12.1,46.2-17.2,5-1.6,8.4-3.7,12.6-6.3,6.1-3.7,9.4-2,10.6,5.7,1.9,13.6-6.4,22.4-13.6,32.6-4,5.6-6.7,9.6-13.2,12.5-6.8,3-14.9,2-22.2,4.3,1.9,2.3,2.9,7.6,4.5,9.2,1.3,1.3,7.8,1.1,10,2.2,6.5,3.4,5.7,9.2,1.7,14.8-4.6,6.4-11.3,7.6-18.7,8.1a75.3,75.3,0,0,1-9.5.1c-2.1-.2-9.6-2.5-11.2-1.8-1.9.8-2.3,5-3.2,6.9-1.4,3.1-2.9,6.1-6.2,7.6a8.881,8.881,0,0,1-8.5-.8c-3.4-2.2-2.5-4.9-4.6-7.8-.2-3-1.5-3.6-3.9-1.7-1.8.6-3.6,1.3-5.5,1.9a44.762,44.762,0,0,0-10.6,5c-6.3,4.4-10.2,11.8-17.2,14.9,4.6,7.9,1.7,18.6-6,22.7a32.344,32.344,0,0,1-5.7,2.6c-1.4.4-5,.1-5.9.9-1.4,1.1-2.1,11.7-3,14.1-3.3,8.1-10.2,12.2-14.3,19.5-4,7.2-3.1,18.3-4.3,26.4-1.4,10-2.4,20.5-6.6,29.8-2.9,6.2-11.5,13.6-19.1,12.4-11.2-1.8-6.3-16.1-2.9-22.2,5.3-9.5,5.3-16.7,3.9-27.2-4.4.7-15.4,5-14.8-3.4.4-5.7,12.7-11,17.1-13.9,9.8-6.5,19.9-14.1,28.1-22.4,3.4-3.5,8.3-9.8,10.1-14.5,1.3-3.4,1-6.8,1.3-10.4.3-3.3,3.2-7.9,3-10.8-.2-4.3-11.5-11.2-14.8-15.7a106.294,106.294,0,0,1-11.4-21.6" fill-rule="evenodd"/><path id="Fill-8" d="M514.03,116.788c3.5-.5,16.8-4.1,19.1-.7,4.2,6.3-8.1,7.5-11.2,8-13.6,2.5-27,5.9-40.2,9.6-26.3,7.5-53.1,16.8-77.6,29-3.8,1.9-15.1,9.7-19,5.7-5-5.1,7.1-10.7,9.8-12.3a285.442,285.442,0,0,1,38.2-18.4c25.9-9.9,53.2-17.8,80.9-20.9" fill-rule="evenodd"/><path id="Fill-10" d="M185.23,449.588c19.6-2.9,40.8,1.4,59.8,7.3a96.623,96.623,0,0,1,18,7.2c3,1.7,10.1,4.6,11.8,7.8,2.8,5.2-.3,7.4-4.9,6.6-4.3-.8-9.7-3.3-14.2-4.4a430.831,430.831,0,0,0-62.3-11.2c-5-.5-8.7.1-13.5,1-3.6.7-13.2,4.6-15.9,2.3-9.7-8.4,16.5-16.1,21.2-16.6" fill-rule="evenodd"/><path id="Fill-12" d="M489.63,489.688c1.3,7.4-2.4,8.1-8.8,11.6a197.173,197.173,0,0,1-19.7,9.3,220.349,220.349,0,0,1-22.7,8.5c-6.5,1.9-16.4,6.2-23.2,5.5-2.7-.3-4.5.1-4.5-3.3,0-3.6,3.4-3.4,6.2-4.2,8.7-2.5,17-6.2,25.5-9.1,16.3-5.5,32.3-10.2,47.2-18.3" fill-rule="evenodd"/><path id="Fill-14" d="M4.33,126.588c-5-8.3-4.9-19.3-3.5-28.7.5-3.2,8.1-26.5,12.7-21.6,2.7,2.9-6.6,21.2-7.5,25.4a38.9,38.9,0,0,0-1,15.2c.1,1.4,3.2,10.2-.7,9.7" fill-rule="evenodd"/><path id="Fill-16" d="M267.23,173.688c-3.7-5,1.2-16.3,2.7-21.6.9-3.3,3.7-15.7,8.2-13,4.3,2.6-.5,14.2-1.4,17.4-1.2,4.6-3.1,17-9.5,17.2" fill-rule="evenodd"/><path id="Fill-18" d="M674.93,441.488c.7-1.6,1.4-3.2,2-4.8,1.7,1.3,4.1,1.9,2.4,3.9-1.1,1.2-2.9,1.2-4.4.9" fill="#34558b" fill-rule="evenodd"/><path id="Fill-20" d="M612.93,127.888a35.8,35.8,0,0,1-8,.4c2.7-.1,5.3-.2,8-.4" fill="#34558b" fill-rule="evenodd"/><path id="Fill-26" d="M319.93,36.388h-6c2-.8,4-.4,6,0" fill="#34558b" fill-rule="evenodd"/><path id="Fill-28" d="M333.43,652.688c0,1.3-.1,2.7-.1,4,.1-1.4.1-2.7.1-4" fill="#34558b" fill-rule="evenodd"/><path id="Fill-30" d="M80.93,173.088h3a15.038,15.038,0,0,1-3,0" fill="#34558b" fill-rule="evenodd"/><path id="Fill-32" d="M645.43,526.688c0-1.3,0-2.7-.1-4,.1,1.3.1,2.6.1,4" fill="#34558b" fill-rule="evenodd"/><path id="Fill-34" d="M696.33,264.688c.1-1.3.1-2.7.2-4-.1,1.3-.1,2.6-.2,4" fill="#34558b" fill-rule="evenodd"/><path id="Fill-36" d="M605.529,62.688c-.1,1.3-.1,2.7-.2,4,.1-1.4.1-2.7.2-4" fill="#34558b" fill-rule="evenodd"/><path id="Fill-42" d="M464.53,40.688c0-1.3-.1-2.7-.1-4,0,1.3,0,2.6.1,4" fill="#34558b" fill-rule="evenodd"/><path id="Fill-44" d="M46.33,126.688c.1-1.3.1-2.7.2-4-.1,1.3-.1,2.6-.2,4" fill="#34558b" fill-rule="evenodd"/><path id="Fill-48" d="M743.529,44.688c-.1-1.3-.1-2.7-.2-4,.1,1.3.1,2.6.2,4" fill="#34558b" fill-rule="evenodd"/><path id="Fill-52" d="M868.529,483.688c-.1-1.3-.2-2.7-.2-4,.1,1.3.1,2.6.2,4" fill="#34558b" fill-rule="evenodd"/><path id="Fill-54" d="M370.93,473.188c1,0,2-.1,3-.1-1,0-2,.1-3,.1" fill="#34558b" fill-rule="evenodd"/><path id="Fill-56" d="M696.529,291.688c-.1-1.3-.2-2.7-.2-4,.1,1.3.1,2.6.2,4" fill="#34558b" fill-rule="evenodd"/><path id="Fill-60" d="M184.93,448.988c-1.3.1-2.7.3-4,.4,1.3-.2,2.7-.3,4-.4" fill="#34558b" fill-rule="evenodd"/><path id="Fill-62" d="M695.43,282.688c0-1-.1-2-.1-3,.1,1,.1,2,.1,3" fill="#34558b" fill-rule="evenodd"/><path id="Fill-64" d="M740.529,87.688c-.1-1-.1-2-.2-3,.1,1,.1,2,.2,3" fill="#34558b" fill-rule="evenodd"/><path id="Fill-68" d="M295.23,371.888c.5,0,1.1.1,1.7.1-1.2,1-2.7-.1-1.7-.1" fill="#34558b" fill-rule="evenodd"/><path id="Fill-72" d="M867.529,475.688c-.1-1-.1-2-.2-3,.1,1,.1,2,.2,3" fill="#34558b" fill-rule="evenodd"/><path id="Fill-74" d="M87.53,278.688l-.3,3c.2-1,.2-2,.3-3" fill="#34558b" fill-rule="evenodd"/><path id="Fill-76" d="M545.93,149.888c-1.2.9-2.6.4-4,.4,1.3-.2,2.7-.3,4-.4" fill="#34558b" fill-rule="evenodd"/><path id="Fill-80" d="M635.33,551.688c.1-1,.2-2,.2-3-.1,1-.1,2-.2,3" fill="#34558b" fill-rule="evenodd"/><path id="Fill-82" d="M69.93,172.088c.7,0,1.3.1,2,.1-.7,0-1.3-.1-2-.1" fill="#34558b" fill-rule="evenodd"/><path id="Fill-84" d="M513.93,116.988c-1.3.1-2.7.2-4,.3,1.3-.1,2.7-.2,4-.3" fill="#34558b" fill-rule="evenodd"/><path id="Fill-86" d="M417.53,647.688l-.3,3c.2-1,.2-2,.3-3" fill="#34558b" fill-rule="evenodd"/><path id="Fill-88" d="M220.93,268.988c-1.3.1-2.7.2-4,.3,1.3-.1,2.7-.2,4-.3" fill="#34558b" fill-rule="evenodd"/><path id="Fill-96" d="M388.93,608.288c2.7-.1,5.3-.2,8-.3-2.7.1-5.3.2-8,.3" fill="#34558b" fill-rule="evenodd"/><path id="Fill-98" d="M632.33,514.688c.1-1.7.1-3.3.2-5-.1,1.6-.1,3.3-.2,5" fill="#34558b" fill-rule="evenodd"/><path id="Fill-100" d="M685.93,63.288c1.7-.1,3.3-.2,5-.4-1.7.2-3.3.3-5,.4" fill="#34558b" fill-rule="evenodd"/><path id="Fill-102" d="M209.93,402.988c1.7.1,3.3.2,5,.3-1.7-.1-3.3-.2-5-.3" fill="#34558b" fill-rule="evenodd"/><path id="Fill-104" d="M328.53,364.688a3.816,3.816,0,0,1,.1-4,6.823,6.823,0,0,1-.1,4" fill="#34558b" fill-rule="evenodd"/><path id="Fill-112" d="M358.93,456.988c1.3.1,2.7.2,4,.3-1.3-.1-2.7-.2-4-.3" fill="#34558b" fill-rule="evenodd"/><path id="Fill-114" d="M334.03,369.588q-.3-2.4.9-1.8c.1,1.5-.1,2.1-.9,1.8" fill="#34558b" fill-rule="evenodd"/><path id="Fill-122" d="M665.93,185.288l4-.3Z" fill="#34558b" fill-rule="evenodd"/><path id="Fill-126" d="M626.33,543.688c.1-1,.1-2,.2-3-.1,1-.1,2-.2,3" fill="#34558b" fill-rule="evenodd"/><path id="Fill-128" d="M471.93,559.088c-.7,0-1.3.1-2,.1.7,0,1.3-.1,2-.1" fill="#34558b" fill-rule="evenodd"/><path id="Fill-134" d="M327.73,128.688q2.1,1.35.6,3-2.4-.3-.6-3" fill="#34558b" fill-rule="evenodd"/><path id="Fill-136" d="M402.93,87.088c1.3,0,2.7,0,4,.1-1.3,0-2.7,0-4-.1" fill="#34558b" fill-rule="evenodd"/><path id="Fill-140" d="M349.93,105.288l4-.4Z" fill="#34558b" fill-rule="evenodd"/><path id="Fill-142" d="M530.73,289.088c-9.8,1.1-22.3.1-31.1-4.6-6.1-3.3-9-14.1-.1-15.7,5-.9,11,3.6,15.4,5.3,5.3,2,10.8,3,16.2,4.4,3.7,1,9,3.4,5.7,8.7-.6.8-6,3.7-6.1,1.9" fill-rule="evenodd"/><path id="Fill-144" d="M668.93,337.288c-1,6.3-1.1,13.2-4.1,19-4.4,8.3-5.2-.6-4.5-5.1a92.833,92.833,0,0,0,1.1-20.4c-.4-5.6-4.2-12.1-1.4-17.1,7.4,4.8,7.5,15.6,8.9,23.6" fill-rule="evenodd"/><path id="Fill-146" d="M669.23,141.588c-4.1-.9-10.9-3.7-5.1-7.5,2.4-1.6,7-.8,9.7-2.3,1.6-.9,2.5-2.8,4.1-3.5,5.3-2.3,5.9,1.6,3.9,6.6-2.1,5.3-7.2,7-12.6,6.7" fill-rule="evenodd"/><path id="Fill-148" d="M666.83,108.488c6.8-5.1,5.9,1.3,2.3,5.7-1.3,1.5-2.7,3-4,4.5l1.2,1.4c-.2,2,1.7,3.6-.6,4.9-3.9,2.2-6.8-3-6.8-5.9,0-4.7,4.8-7.7,7.9-10.6" fill-rule="evenodd"/><path id="Fill-150" d="M666.029,108.988c-6.3,6.2-6.1-6.3-2.7-9,6.4-5.2,2.2,6.8,2.7,9" fill-rule="evenodd"/><path id="Fill-152" d="M678.13,113.688c-.5-2.2-.5-12.7,3.9-12,4.8.8-.5,12.3-3.9,12" fill-rule="evenodd"/><path id="Fill-154" d="M669.93,142.088c.7,0,1.3.1,2,.1-.7,0-1.3-.1-2-.1" fill="#34558b" fill-rule="evenodd"/><path id="Fill-156" d="M365.23,63.688c-5.4-9.2,6.9-25,13.1-12.2.8,1.7,2.7,6.4.5,7.8-2.5,1.5-1.9-.7-3.9-1-2.4-.4-1.6-1.5-4.4-.3-2,.8-3.9,4.1-5.3,5.7" fill-rule="evenodd"/></g></svg>